<mxfile host="65bd71144e">
    <diagram id="C5RBs43oDa-KdzZeNtuy" name="Page-1">
        <mxGraphModel dx="990" dy="471" grid="0" gridSize="10" guides="1" tooltips="1" connect="1" arrows="1" fold="1" page="1" pageScale="1" pageWidth="827" pageHeight="1169" math="0" shadow="0">
            <root>
                <mxCell id="WIyWlLk6GJQsqaUBKTNV-0"/>
                <mxCell id="WIyWlLk6GJQsqaUBKTNV-1" parent="WIyWlLk6GJQsqaUBKTNV-0"/>
                <mxCell id="9OZRC_NavAZGSDA5mFGG-38" value="&lt;font data-font-src=&quot;@font-face {     font-family: 'Pretendard-Regular';     src: url('https://cdn.jsdelivr.net/gh/Project-Noonnu/noonfonts_2107@1.1/Pretendard-Regular.woff') format('woff');     font-weight: 400;     font-style: normal; }&quot;&gt;Finite State Machine on Station&lt;/font&gt;" style="swimlane;strokeWidth=1;fontSize=12;startSize=23;fontFamily=프리텐다드;html=1;fontSource=https%3A%2F%2Fcdn.jsdelivr.net%2Fgh%2FProject-Noonnu%2Fnoonfonts_2107%401.1%2FPretendard-Regular.woff;" parent="WIyWlLk6GJQsqaUBKTNV-1" vertex="1">
                    <mxGeometry x="59" y="37" width="710" height="412" as="geometry"/>
                </mxCell>
                <mxCell id="18" style="edgeStyle=none;html=1;exitX=0.5;exitY=1;exitDx=0;exitDy=0;entryX=0;entryY=0.5;entryDx=0;entryDy=0;fontFamily=프리텐다드;fontSource=https%3A%2F%2Fcdn.jsdelivr.net%2Fgh%2FProject-Noonnu%2Fnoonfonts_2107%401.1%2FPretendard-Regular.woff;" parent="9OZRC_NavAZGSDA5mFGG-38" source="0" target="14" edge="1">
                    <mxGeometry relative="1" as="geometry"/>
                </mxCell>
                <mxCell id="0" value="Car Flag = 0&lt;br&gt;Cast = 0" style="rounded=0;whiteSpace=wrap;html=1;fontFamily=프리텐다드;fontSource=https%3A%2F%2Fcdn.jsdelivr.net%2Fgh%2FProject-Noonnu%2Fnoonfonts_2107%401.1%2FPretendard-Regular.woff;" parent="9OZRC_NavAZGSDA5mFGG-38" vertex="1">
                    <mxGeometry x="99" y="120.5" width="120" height="60" as="geometry"/>
                </mxCell>
                <mxCell id="20" style="edgeStyle=none;html=1;exitX=0;exitY=0.5;exitDx=0;exitDy=0;entryX=1;entryY=0.5;entryDx=0;entryDy=0;fontFamily=프리텐다드;fontSource=https%3A%2F%2Fcdn.jsdelivr.net%2Fgh%2FProject-Noonnu%2Fnoonfonts_2107%401.1%2FPretendard-Regular.woff;" parent="9OZRC_NavAZGSDA5mFGG-38" source="3" target="0" edge="1">
                    <mxGeometry relative="1" as="geometry"/>
                </mxCell>
                <mxCell id="22" style="edgeStyle=none;html=1;exitX=0.25;exitY=1;exitDx=0;exitDy=0;entryX=1;entryY=0.25;entryDx=0;entryDy=0;fontFamily=프리텐다드;fontSource=https%3A%2F%2Fcdn.jsdelivr.net%2Fgh%2FProject-Noonnu%2Fnoonfonts_2107%401.1%2FPretendard-Regular.woff;" parent="9OZRC_NavAZGSDA5mFGG-38" source="3" target="14" edge="1">
                    <mxGeometry relative="1" as="geometry"/>
                </mxCell>
                <mxCell id="3" value="Car Flag = 1&lt;br&gt;Cast = 0" style="rounded=0;whiteSpace=wrap;html=1;fontFamily=프리텐다드;fontSource=https%3A%2F%2Fcdn.jsdelivr.net%2Fgh%2FProject-Noonnu%2Fnoonfonts_2107%401.1%2FPretendard-Regular.woff;" parent="9OZRC_NavAZGSDA5mFGG-38" vertex="1">
                    <mxGeometry x="500" y="120.5" width="120" height="60" as="geometry"/>
                </mxCell>
                <mxCell id="6" value="TIME_CAR timeout" style="text;html=1;strokeColor=none;fillColor=none;align=center;verticalAlign=middle;whiteSpace=wrap;rounded=0;fontFamily=프리텐다드;fontSource=https%3A%2F%2Fcdn.jsdelivr.net%2Fgh%2FProject-Noonnu%2Fnoonfonts_2107%401.1%2FPretendard-Regular.woff;" parent="9OZRC_NavAZGSDA5mFGG-38" vertex="1">
                    <mxGeometry x="188" y="120.5" width="187" height="30" as="geometry"/>
                </mxCell>
                <mxCell id="9" value="SingleCast ACK found" style="text;html=1;strokeColor=none;fillColor=none;align=center;verticalAlign=middle;whiteSpace=wrap;rounded=0;fontFamily=프리텐다드;fontSource=https%3A%2F%2Fcdn.jsdelivr.net%2Fgh%2FProject-Noonnu%2Fnoonfonts_2107%401.1%2FPretendard-Regular.woff;" parent="9OZRC_NavAZGSDA5mFGG-38" vertex="1">
                    <mxGeometry x="118" y="293" width="187" height="30" as="geometry"/>
                </mxCell>
                <mxCell id="19" style="edgeStyle=none;html=1;exitX=1;exitY=0.75;exitDx=0;exitDy=0;entryX=0.5;entryY=1;entryDx=0;entryDy=0;fontFamily=프리텐다드;fontSource=https%3A%2F%2Fcdn.jsdelivr.net%2Fgh%2FProject-Noonnu%2Fnoonfonts_2107%401.1%2FPretendard-Regular.woff;" parent="9OZRC_NavAZGSDA5mFGG-38" source="14" target="3" edge="1">
                    <mxGeometry relative="1" as="geometry"/>
                </mxCell>
                <mxCell id="14" value="Car Flag = 1&lt;br&gt;Cast = 1" style="rounded=0;whiteSpace=wrap;html=1;fontFamily=프리텐다드;fontSource=https%3A%2F%2Fcdn.jsdelivr.net%2Fgh%2FProject-Noonnu%2Fnoonfonts_2107%401.1%2FPretendard-Regular.woff;" parent="9OZRC_NavAZGSDA5mFGG-38" vertex="1">
                    <mxGeometry x="299.5" y="293" width="120" height="60" as="geometry"/>
                </mxCell>
                <mxCell id="21" value="TIME_BCT timeout" style="text;html=1;strokeColor=none;fillColor=none;align=center;verticalAlign=middle;whiteSpace=wrap;rounded=0;fontFamily=프리텐다드;fontSource=https%3A%2F%2Fcdn.jsdelivr.net%2Fgh%2FProject-Noonnu%2Fnoonfonts_2107%401.1%2FPretendard-Regular.woff;" parent="9OZRC_NavAZGSDA5mFGG-38" vertex="1">
                    <mxGeometry x="504" y="197" width="187" height="30" as="geometry"/>
                </mxCell>
                <mxCell id="23" value="SingleCast ACK found" style="text;html=1;strokeColor=none;fillColor=none;align=center;verticalAlign=middle;whiteSpace=wrap;rounded=0;fontFamily=프리텐다드;fontSource=https%3A%2F%2Fcdn.jsdelivr.net%2Fgh%2FProject-Noonnu%2Fnoonfonts_2107%401.1%2FPretendard-Regular.woff;" parent="9OZRC_NavAZGSDA5mFGG-38" vertex="1">
                    <mxGeometry x="292" y="249" width="187" height="30" as="geometry"/>
                </mxCell>
                <mxCell id="26" value="SingleCast&lt;br&gt;&lt;br&gt;BroadCast" style="text;html=1;strokeColor=none;fillColor=none;align=center;verticalAlign=middle;whiteSpace=wrap;rounded=0;fontFamily=프리텐다드;fontSource=https%3A%2F%2Fcdn.jsdelivr.net%2Fgh%2FProject-Noonnu%2Fnoonfonts_2107%401.1%2FPretendard-Regular.woff;" vertex="1" parent="9OZRC_NavAZGSDA5mFGG-38">
                    <mxGeometry x="40" y="207" width="103" height="61" as="geometry"/>
                </mxCell>
                <mxCell id="27" value="Start Here" style="text;html=1;strokeColor=none;fillColor=none;align=center;verticalAlign=middle;whiteSpace=wrap;rounded=0;fontFamily=프리텐다드;fontSource=https%3A%2F%2Fcdn.jsdelivr.net%2Fgh%2FProject-Noonnu%2Fnoonfonts_2107%401.1%2FPretendard-Regular.woff;" vertex="1" parent="9OZRC_NavAZGSDA5mFGG-38">
                    <mxGeometry x="105" y="93" width="60" height="30" as="geometry"/>
                </mxCell>
                <mxCell id="24" value="" style="endArrow=none;dashed=1;html=1;dashPattern=1 3;strokeWidth=2;fontFamily=프리텐다드;fontSource=https%3A%2F%2Fcdn.jsdelivr.net%2Fgh%2FProject-Noonnu%2Fnoonfonts_2107%401.1%2FPretendard-Regular.woff;" edge="1" parent="WIyWlLk6GJQsqaUBKTNV-1">
                    <mxGeometry width="50" height="50" relative="1" as="geometry">
                        <mxPoint x="117" y="275" as="sourcePoint"/>
                        <mxPoint x="721" y="275" as="targetPoint"/>
                    </mxGeometry>
                </mxCell>
            </root>
        </mxGraphModel>
    </diagram>
</mxfile>